<svg id="Capa_1" enable-background="new 0 0 490.986 490.986" height="512" viewBox="0 0 490.986 490.986" width="512" xmlns="http://www.w3.org/2000/svg"><g><circle cx="202.683" cy="289.253" fill="#85ccf8" r="201.731"/><path d="m237.717 487.953c-11.38 1.99-23.08 3.03-35.03 3.03-111.42 0-201.73-90.32-201.73-201.73s90.31-201.73 201.73-201.73c11.95 0 23.65 1.04 35.03 3.03-94.71 16.58-166.7 99.24-166.7 198.7s71.99 182.12 166.7 198.7z" fill="#75b3da"/><path d="m352.726 154.412c32.14 35.73 51.69 83 51.69 134.84 0 65.03-30.77 122.87-78.55 159.76-15.79-40.92-32.18-88.27-32.18-108.49 0-39 39-39 39-67s-25-42-25-75c0-20 19.46-35.22 45.04-44.11z" fill="#f1d05f"/><path d="m114.686 293.525c0 44 80 54 22 132-1.86 2.51-3.78 4.91-5.73 7.22-10.15 11.98-21.47 21.4-33.29 28.78-58-35.43-96.71-99.33-96.71-172.27 0-52.61 20.14-100.52 53.12-136.43l.01.01c16.97 0 41.87.82 65.11 5.58 32.36 6.61 61.49 20.85 61.49 51.11 0 52-66 40-66 84z" fill="#f1d05f"/><path d="m130.956 432.745c-10.15 11.98-21.47 21.4-33.29 28.78-58-35.43-96.71-99.33-96.71-172.27 0-52.61 20.14-100.52 53.12-136.43l.01.01c16.97 0 41.87.82 65.11 5.58-30.04 35.22-48.18 80.92-48.18 130.84.001 56.14 22.93 106.92 59.94 143.49z" fill="#ecbb4d"/><path d="m347.109 37.699c27.752-48.103 123.959-55.504 140.61 9.251s-59.204 148.01-140.61 181.313c-81.406-33.303-157.261-116.559-140.61-181.313s112.858-57.354 140.61-9.251z" fill="#da455f"/><path d="m347.109 228.262c-81.4-33.3-157.26-116.56-140.61-181.31 9.61-37.37 45.7-50.71 79.85-46.06-17.56 3.57-33.07 18.07-38.13 46.06-11.71 64.75 41.64 148.01 98.89 181.31z" fill="#b03a50"/></g></svg>